# xmcd CD database file
#
# Track frame offsets:
#	187
#	13982
#	28547
#	46995
#	60775
#	76887
#	93810
#	110235
#	125275
#	147417
#	165785
#	183280
#	200425
#	217565
#	235560
#	247310
#
# Disc length: 3573 seconds
#
# Revision: 0
# Processed by: cddbd v1.5.1PL2 Copyright (c) Steve Scherf et al.
# Submitted via: CDex 1.51
#
DISCID=c50df310
DTITLE=ニニ・ロッソ - ニニ・ロッソ　デジタル･ベスト
DYEAR=1986
DGENRE=Jazz
TTITLE0=夜空のトランペット
TTITLE1=夕焼けのトランペット
TTITLE2=皆殺しの歌～映画「リオブラボー」より
TTITLE3=さすらいのトランペット
TTITLE4=星空のブルース
TTITLE5=ジェルソミーナ～映画「道」より
TTITLE6=スターダスト
TTITLE7=さすらいのマーチ～映画「全身か死か」より
TTITLE8=恋のアランフェス
TTITLE9=ソレアード
TTITLE10=シューベルトのセレナーデ
TTITLE11=水曜日の夜
TTITLE12=ディアー・フレンド
TTITLE13=母
TTITLE14=真夜中のブルース
TTITLE15=この素晴らしき世界
EXTD=YEAR: 1986
EXTT0=
EXTT1=
EXTT2=
EXTT3=
EXTT4=
EXTT5=
EXTT6=
EXTT7=
EXTT8=
EXTT9=
EXTT10=
EXTT11=
EXTT12=
EXTT13=
EXTT14=
EXTT15=
PLAYORDER=
